<?xml version="1.0" encoding="iso-8859-1"?>
<!-- Generator: Adobe Illustrator 19.0.0, SVG Export Plug-In . SVG Version: 6.00 Build 0)  -->
<svg version="1.1" id="Layer_1" xmlns="http://www.w3.org/2000/svg" xmlns:xlink="http://www.w3.org/1999/xlink" x="0px" y="0px"
	 viewBox="0 0 512 512" style="enable-background:new 0 0 512 512;  fill:white;" xml:space="preserve">

<g>
	<g>
		<path d="M96.067,0v512h319.866V0H96.067z M400.281,496.348H111.719V15.652h288.562V496.348z"/>
	</g>
</g>
<g>
	<g>
		<rect x="143.957" y="65.342" width="152.347" height="15.652"/>
	</g>
</g>
<g>
	<g>
		<rect x="143.957" y="96.647" width="32.348" height="15.652"/>
	</g>
</g>
<g>
	<g>
		<rect x="143.957" y="145.69" width="111.652" height="15.652"/>
	</g>
</g>
<g>
	<g>
		<polygon points="362.545,122.377 336.056,148.865 325.578,138.388 314.511,149.456 336.056,171.001 373.613,133.444 		"/>
	</g>
</g>
<g>
	<g>
		<rect x="272.305" y="145.69" width="24" height="15.652"/>
	</g>
</g>
<g>
	<g>
		<rect x="143.957" y="200.994" width="111.652" height="15.652"/>
	</g>
</g>
<g>
	<g>
		<polygon points="362.545,178.416 336.056,204.904 325.578,194.428 314.511,205.495 336.056,227.039 373.613,189.484 		"/>
	</g>
</g>
<g>
	<g>
		<rect x="272.305" y="200.994" width="24" height="15.652"/>
	</g>
</g>
<g>
	<g>
		<rect x="143.957" y="257.342" width="111.652" height="15.652"/>
	</g>
</g>
<g>
	<g>
		<rect x="272.305" y="257.342" width="24" height="15.652"/>
	</g>
</g>
<g>
	<g>
		<rect x="143.957" y="313.69" width="111.652" height="15.652"/>
	</g>
</g>
<g>
	<g>
		<rect x="272.305" y="313.69" width="24" height="15.652"/>
	</g>
</g>
<g>
	<g>
		<rect x="143.957" y="370.037" width="111.652" height="15.652"/>
	</g>
</g>
<g>
	<g>
		<rect x="272.305" y="370.037" width="24" height="15.652"/>
	</g>
</g>
<g>
	<g>
		<rect x="143.957" y="433.689" width="16.696" height="15.652"/>
	</g>
</g>
<g>
	<g>
		<rect x="176.305" y="433.689" width="15.652" height="15.652"/>
	</g>
</g>
<g>
	<g>
		<rect x="208.653" y="433.689" width="15.652" height="15.652"/>
	</g>
</g>
<g>
</g>
<g>
</g>
<g>
</g>
<g>
</g>
<g>
</g>
<g>
</g>
<g>
</g>
<g>
</g>
<g>
</g>
<g>
</g>
<g>
</g>
<g>
</g>
<g>
</g>
<g>
</g>
<g>
</g>
</svg>
